<?xml version="1.0" standalone="no"?>
<!DOCTYPE svg PUBLIC "-//W3C//DTD SVG 20010904//EN"
 "http://www.w3.org/TR/2001/REC-SVG-20010904/DTD/svg10.dtd">
<svg version="1.0" xmlns="http://www.w3.org/2000/svg"
 width="472.000000pt" height="472.000000pt" viewBox="0 0 472.000000 472.000000"
 preserveAspectRatio="xMidYMid meet">

<g transform="translate(0.000000,472.000000) scale(0.100000,-0.100000)"
fill="#000000" stroke="none">
<path d="M3350 3381 c-74 -32 -200 -90 -279 -129 l-143 -71 -167 -169 c-104
-106 -165 -175 -163 -185 5 -24 18 -21 80 14 30 17 56 28 59 25 11 -11 -18
-34 -77 -60 -58 -26 -59 -28 -53 -59 3 -18 7 -33 9 -35 7 -10 169 24 236 48
45 17 80 25 84 19 12 -21 -149 -74 -259 -86 -59 -6 -81 -23 -59 -45 11 -11
168 6 265 28 20 5 27 3 27 -9 0 -15 -66 -30 -240 -54 -46 -7 -56 -12 -58 -30
-3 -19 3 -22 40 -27 133 -16 631 -48 682 -43 83 8 202 47 316 104 l95 48 3 43
c4 55 -26 174 -98 386 -80 234 -128 346 -149 346 -9 0 -77 -27 -151 -59z"/>
<path d="M1120 3256 c-33 -71 -54 -155 -65 -251 -3 -33 -15 -103 -26 -157 -29
-146 -20 -267 27 -364 34 -70 65 -78 319 -84 205 -5 214 -6 130 -14 -131 -13
-370 -2 -422 19 -52 21 -69 46 -94 142 -24 97 -24 176 1 305 11 57 20 115 20
131 l0 27 -72 -6 c-108 -9 -344 -50 -418 -73 -84 -27 -130 -55 -130 -81 0 -26
113 -325 152 -405 17 -33 55 -102 86 -153 l55 -94 106 4 c58 2 114 8 124 12
12 6 17 4 17 -7 0 -22 -60 -37 -147 -37 -40 0 -73 -3 -72 -7 1 -22 150 -202
187 -228 39 -27 52 -30 115 -30 58 0 91 7 172 37 55 20 156 51 225 68 186 47
319 114 515 261 79 59 177 149 150 137 -5 -2 -39 -18 -75 -35 -68 -32 -179
-67 -187 -60 -2 3 31 17 74 31 43 15 105 41 138 59 52 28 60 36 63 65 3 25 -1
32 -15 33 -10 0 -13 3 -5 6 6 2 12 13 12 23 0 16 -10 17 -147 13 -117 -4 -176
-1 -281 15 -74 11 -136 23 -140 26 -3 4 -1 11 4 16 7 7 51 4 135 -10 123 -20
293 -26 383 -14 l46 7 0 48 0 49 -72 0 c-129 0 -254 28 -230 52 6 6 26 4 58
-7 27 -9 93 -19 147 -22 l97 -6 0 35 c0 33 -4 37 -41 52 -57 23 -139 78 -139
93 0 15 36 17 45 3 9 -14 107 -70 123 -70 13 0 16 37 6 65 -4 9 -34 35 -68 57
-33 23 -86 65 -116 94 -56 52 -148 118 -209 149 -91 46 -352 122 -479 140
l-52 7 -30 -66z m915 -766 c-11 -5 -27 -9 -35 -9 -9 0 -8 4 5 9 11 5 27 9 35
9 9 0 8 -4 -5 -9z"/>
<path d="M3735 2973 c37 -92 64 -267 49 -308 -7 -17 -168 -102 -257 -135 -82
-30 -176 -50 -244 -50 -65 0 -557 35 -630 45 -34 5 -43 3 -43 -9 0 -8 16 -20
35 -26 19 -6 35 -16 35 -21 0 -16 -25 -20 -52 -10 -21 8 -28 7 -32 -5 -3 -9
-4 -19 -1 -24 10 -16 197 -122 311 -175 332 -157 410 -179 762 -220 260 -30
279 -27 337 37 31 33 95 151 95 173 0 4 -37 5 -82 4 -165 -5 -238 0 -238 15 0
12 23 14 143 9 79 -3 155 -3 169 0 21 6 30 21 56 99 34 98 92 333 113 456 11
64 10 75 -3 88 -29 29 -308 74 -457 74 -66 0 -72 -2 -66 -17z"/>
<path d="M2175 2883 l-50 -18 -3 -85 c-2 -47 0 -141 3 -209 7 -112 9 -126 31
-148 21 -20 32 -23 109 -23 51 0 85 4 85 10 0 6 -9 46 -21 90 -11 44 -17 84
-14 90 12 19 35 10 41 -17 14 -65 26 -110 35 -140 11 -33 11 -33 79 -33 68 0
68 0 80 33 18 46 24 259 11 347 -12 76 -27 100 -63 100 -16 0 -18 -8 -16 -72
3 -59 0 -73 -12 -75 -13 -3 -18 13 -27 72 -6 42 -13 79 -16 81 -3 3 -50 8
-104 10 -77 4 -109 1 -148 -13z m55 -158 c0 -68 -2 -75 -20 -75 -17 0 -20 7
-20 49 0 27 4 61 10 75 18 48 30 28 30 -49z"/>
<path d="M2570 2392 c0 -11 225 -360 419 -651 136 -204 246 -308 419 -399 l52
-27 83 42 c132 68 130 64 63 102 -65 37 -204 139 -225 164 -11 14 -11 18 3 23
9 3 25 0 35 -7 10 -8 56 -43 101 -77 46 -35 106 -75 133 -88 l49 -25 50 32
c209 135 470 389 613 598 54 79 54 86 -5 160 -41 52 -158 137 -171 124 -4 -4
-21 -43 -38 -86 -90 -227 -142 -276 -291 -277 -90 0 -402 34 -507 56 -185 38
-553 199 -760 332 -14 9 -23 10 -23 4z"/>
<path d="M2035 2329 c-166 -143 -388 -269 -555 -314 -145 -39 -248 -70 -330
-100 -89 -33 -169 -41 -229 -25 -61 16 -124 79 -226 226 -48 68 -91 124 -95
124 -27 0 -274 -303 -283 -346 -6 -33 21 -73 126 -181 86 -88 100 -99 207
-150 215 -102 299 -145 385 -194 47 -27 94 -49 104 -49 26 0 148 115 206 195
30 40 55 65 67 65 23 0 21 -4 -48 -90 -59 -74 -100 -114 -161 -157 l-42 -30
27 -13 c15 -7 55 -15 89 -18 111 -9 167 26 260 164 68 101 406 643 476 764 58
101 103 190 95 190 -2 0 -34 -27 -73 -61z"/>
</g>
</svg>
